<svg xmlns="http://www.w3.org/2000/svg" xmlns:xlink="http://www.w3.org/1999/xlink" width="24" height="24" preserveAspectRatio="xMidYMid meet" viewBox="0 0 24 24" style="-ms-transform: rotate(360deg); -webkit-transform: rotate(360deg); transform: rotate(360deg);"><path d="M7.5 18A5.5 5.5 0 0 1 2 12.5A5.5 5.5 0 0 1 7.5 7H18a4 4 0 0 1 4 4a4 4 0 0 1-4 4H9.5A2.5 2.5 0 0 1 7 12.5A2.5 2.5 0 0 1 9.5 10H17v1.5H9.5a1 1 0 0 0-1 1a1 1 0 0 0 1 1H18a2.5 2.5 0 0 0 2.5-2.5A2.5 2.5 0 0 0 18 8.5H7.5a4 4 0 0 0-4 4a4 4 0 0 0 4 4H17V18H7.5z" fill="#626262"/><rect x="0" y="0" width="24" height="24" fill="rgba(0, 0, 0, 0)" /></svg>